<svg xmlns="http://www.w3.org/2000/svg" width="512" height="512" viewBox="0 0 512 512">
  <!-- Blue circle background -->
  <circle cx="256" cy="256" r="256" fill="#1877F2"/>
  
  <!-- White GitHub mark -->
  <path fill="#FFFFFF" d="M256 32C132.3 32 32 134.6 32 260.3c0 101.1 64.2 186.8 153.2 217.2
    11.2 2.1 15.3-4.9 15.3-10.9 0-5.4-.2-19.6-.3-38.5-62.3 13.9-75.5-30.5-75.5-30.5
    -10.2-26.3-25-33.3-25-33.3-20.4-14.2 1.6-13.9 1.6-13.9
    22.6 1.6 34.5 23.5 34.5 23.5 20 35 52.5 24.9 65.4 19
    2-14.8 7.8-24.9 14.2-30.6-49.7-5.8-102-25.5-102-113.5
    0-25.1 8.9-45.6 23.5-61.6-2.4-5.8-10.2-29.2 2.2-60.8 0 0
    19.1-6.3 62.6 23.5 18.1-5.1 37.6-7.7 57-7.8 19.4.1 38.9 2.7 57 7.8
    43.5-29.8 62.6-23.5 62.6-23.5 12.4 31.6 4.6 55 2.2 60.8
    14.6 16 23.5 36.5 23.5 61.6 0 88.2-52.4 107.6-102.3 113.3
    8 6.9 15.2 20.5 15.2 41.3 0 29.8-.3 53.8-.3 61.2 0 6.1 4 13.1 15.4 10.9
    89-30.4 153.1-116.1 153.1-217.2C480 134.6 379.7 32 256 32z"/>
</svg>
